<svg xmlns="http://www.w3.org/2000/svg" xmlns:xlink="http://www.w3.org/1999/xlink" version="1.1" x="0px" y="0px" viewBox="0 0 100 125" enable-background="new 0 0 100 100" xml:space="preserve"><path fill="none" d="M63.6,56c0-2.2,1.9-4,4.1-4h9.9V33h-62l0,41.9h2.3v-2c0-1.4,1-2.5,2.3-2.5h9.3c1.3,0,2.3,1.1,2.3,2.5v2h31.9  V58.8V56z"/><circle fill="none" cx="76.7" cy="89.2" r="1.4"/><path d="M85.6,52h-4V32.9c0-2.1-1.7-3.9-3.8-3.9H15.3c-2.1,0-3.8,1.7-3.8,3.9l0,42.1c0,2.1,1.7,3.9,3.8,3.9h2.5v9.3v1.3  c0,1.4,1,2.5,2.3,2.5h9.3c1.3,0,2.3-1.1,2.3-2.5v-1.3v-9.3h10.1L39.6,88h-3.5c-1.1,0-2,0.9-2,2s0.9,2,2,2h20.5c1.1,0,2-0.9,2-2  s-0.9-2-2-2h-3l-2.2-9.1h12.2V86v2c0,2.2,1.9,4,4.1,4h17.9c2.3,0,4.1-1.8,4.1-4v-2V58.8V56C89.7,53.8,87.9,52,85.6,52z M29.7,88.2  h-9.8v-9.3v-4v-2c0-0.3,0.2-0.5,0.3-0.5h9.3c0.1,0,0.3,0.2,0.3,0.5v2v4V88.2z M31.7,74.9v-2c0-1.4-1-2.5-2.3-2.5h-9.3  c-1.3,0-2.3,1.1-2.3,2.5v2h-2.3l0-41.9h62v19h-9.9c-2.3,0-4.1,1.8-4.1,4v2.8v16.1H31.7z M76.7,90.5c-0.8,0-1.4-0.6-1.4-1.4  c0-0.8,0.6-1.4,1.4-1.4c0.8,0,1.4,0.6,1.4,1.4C78,89.9,77.4,90.5,76.7,90.5z M87.6,86H65.7v-7.2v-4V58.8h11.9h4h6V86z"/><text x="0" y="115" fill="#000000" font-size="5px" font-weight="bold" font-family="'Helvetica Neue', Helvetica, Arial-Unicode, Arial, Sans-serif">Created by Kirby Wu</text><text x="0" y="120" fill="#000000" font-size="5px" font-weight="bold" font-family="'Helvetica Neue', Helvetica, Arial-Unicode, Arial, Sans-serif">from the Noun Project</text></svg>